<?xml version="1.0" encoding="utf-8"?>
<!-- Generator: Adobe Illustrator 23.0.0, SVG Export Plug-In . SVG Version: 6.00 Build 0)  -->
<svg version="1.1" id="Layer_1" xmlns="http://www.w3.org/2000/svg" xmlns:xlink="http://www.w3.org/1999/xlink" x="0px" y="0px"
	 viewBox="0 0 242.1 241.8" style="enable-background:new 0 0 242.1 241.8;" xml:space="preserve">
<style type="text/css">
	.st0{fill:#FFFFFF;}
	.st1{fill:#020202;}
</style>

<g>
	<path class="st1" d="M205.2,134.6c-2.2-1.3-5.1-1.5-8.1-0.7c-0.6-0.3-1.3-0.4-2-0.4h-9.4c-2.3,0-4.2,1.5-4.8,3.7l-0.1,0.5
		c-1.3-1.3-3-2.4-4.9-3.1c-2-0.9-4.1-1.3-6.3-1.3c-3.3,0-6.5,0.9-9.7,2.8c-0.1-0.2-0.3-0.5-0.4-0.7c-0.8-1.1-2.1-1.8-3.5-1.9l2-7.8
		c0.4-1.5,0.1-3.1-0.9-4.3c-0.9-1.2-2.4-1.9-4-1.9h-9.4c-2.3,0-4.3,1.5-4.8,3.7l-0.2,0.9c-0.1-1-0.4-1.9-1-2.7
		c-0.9-1.2-2.4-1.9-4-1.9h-9.4c-2.3,0-4.3,1.5-4.8,3.7l-0.4,1.3c-0.6-1-1.5-1.9-2.6-2.7c-1.9-1.3-4.1-1.9-6.5-1.9
		c-0.1,0-0.3,0-0.4,0c-2.6,0.1-4.9,0.9-6.9,2.4c-2.3,1.8-3.6,4.2-3.6,6.9c0,1.7,0.5,3.2,1.4,4.6c-1.4,0.6-2.5,1.8-2.9,3.3l-0.7,2.6
		c-1.4-2.4-3.6-4.3-6.5-5.6c-0.2-0.1-0.5-0.2-0.7-0.3c-1.2-0.3-2.5-0.5-3.9-0.5l2.6-9.7c0.4-1.5,0.1-3.1-0.9-4.3
		c-0.9-1.2-2.4-1.9-4-1.9h-9.5c-2.3,0-4.3,1.5-4.8,3.7l-4,15.3c-2.7-2.2-5.9-3.3-9.5-3.3c-3.9,0-7.7,1.3-11.3,3.9
		c-3.4,2.5-6,5.7-8,9.7c-1.8,3.7-2.7,7.6-2.7,11.4c0,9.9,5,14.3,9.2,16.4c2,1,4.3,1.5,6.6,1.5l16.3-0.3h4.9c0.9,0,1.7-0.2,2.4-0.6
		c0,0.1,0,0.2,0,0.3c-0.1,0.3-0.1,0.7-0.1,1.1c0,0,0,0.1,0,0.1c0,0,0,0,0,0v0v0c0.1,2.9,1.3,5.7,3.5,8.1c2.7,2.9,6.2,4.4,10.2,4.4
		c0.1,0,0.2,0,0.2,0c5.3-0.2,9.6-2,12.6-5.3c1.3-1.4,1.7-3.3,1.1-5.1l-1.1-3.1h3.8c0.1,0,0.1,0,0.2,0l12.4-0.1h5.6h10h5.7h3.8
		c2.3,0,4.3-1.5,4.8-3.7l2-7.8c1.5,5.7,5.2,8.7,8.3,10.3c2.6,1.3,5.3,2,8,2c0.4,0,0.8,0,1.2,0l18.8-0.7h2.3c2.3,0,4.2-1.5,4.8-3.7
		l5-18.7c0.5-1.1,0.8-1.5,1-1.6c0.1,0,0.4,0.1,0.8,0.3c1.4,0.8,3,0.9,4.5,0.3c1.4-0.6,2.5-1.9,2.9-3.4l2.1-8.9
		C208.1,137.9,207.1,135.7,205.2,134.6 M73.8,145.5c-0.4,0.4-0.8,0.8-1.1,1.3l1.2-4.6c0.3,0.8,0.7,1.5,1.3,2.1
		C74.5,144.8,74.1,145.2,73.8,145.5 M83.8,178.1c-0.6-0.6-0.8-1.1-0.8-1.4c0-0.3,0.1-0.6,0.1-1c0-0.4,0.1-0.9,0.2-1.5
		c0.3,1.5,0.9,2.7,1.7,3.8c0.3,0.4,0.8,0.8,1.3,1.2C85.2,179.2,84.5,178.8,83.8,178.1 M123.4,143.9c-0.1-0.4-0.3-0.7-0.5-1.1
		c1.1-0.6,1.9-1.6,2.4-2.8c0.1,0.4,0.3,0.7,0.5,1.1C124.6,141.7,123.8,142.7,123.4,143.9 M142.9,143.9c-0.1-0.4-0.3-0.7-0.5-1.1
		c1.1-0.6,1.9-1.6,2.4-2.8c0.1,0.4,0.3,0.7,0.5,1.1C144.1,141.7,143.3,142.7,142.9,143.9 M157.2,156.9c0-0.2,0-0.4,0.1-0.6
		c0,0.1,0.1,0.2,0.1,0.2c0,0,0,0,0,0.1C157.3,156.7,157.3,156.8,157.2,156.9 M188.7,146.5l0.8-3.1h1c0.1,0.2,0.3,0.4,0.5,0.5
		C190.2,144.7,189.4,145.5,188.7,146.5"/>
	<polygon class="st0" points="93.9,170.8 103.3,170.8 111.8,138.3 102.4,138.3 	"/>
	<path class="st0" d="M105.6,132c1.1,0.8,2.4,1.1,4,1.1c1.5,0,2.9-0.5,4-1.3c1.1-0.8,1.6-1.8,1.6-3c0-1.1-0.5-2.1-1.6-2.8
		c-1.1-0.8-2.4-1.1-4-1.1c-1.5,0-2.9,0.5-4,1.3c-1.1,0.8-1.6,1.8-1.6,3C104,130.3,104.6,131.3,105.6,132"/>
	<polygon class="st0" points="155.4,138.4 149.4,138.4 153.1,124.4 143.6,124.4 140,138.4 135.9,138.4 135.6,138.4 130,138.4 
		133.6,124.4 124.2,124.4 120.5,138.4 116.2,138.4 114.3,145.5 118.6,145.5 112.1,170.7 121.5,170.7 128.1,145.5 133.8,145.5 
		134,145.5 138.1,145.5 131.5,170.7 141,170.7 147.6,145.5 153.5,145.5 	"/>
	<path class="st0" d="M179.3,147.4c0-4.2-1.8-7-5.4-8.2c-1.4-0.6-2.8-1-4.4-1c-2.9,0-5.7,1-8.5,3c-2.8,2-5,4.6-6.6,7.9
		c-1.5,3-2.2,6.1-2.2,9.2c0,5.8,2.1,9.7,6.3,11.8c1.9,1,3.8,1.4,5.7,1.4c2.2,0,4.2-0.6,6.2-1.8l2.4-9.2c-2.4,2.5-5.3,3.7-8.5,3.6
		c-0.4-0.2-0.8-0.4-1-0.5c-1-0.5-1.7-1.7-2-3.6c1.1,0.3,2.3,0.5,3.6,0.5c3.3,0,6.4-1.1,9.2-3.3c2.8-2.2,4.6-4.7,5.2-7.6
		C179.2,148.9,179.3,148.2,179.3,147.4 M169.9,152.6c-1.5,1.1-3.3,1.6-5.6,1.6c-0.9,0-1.7-0.1-2.6-0.3c0.5-1.8,1.5-3.6,2.9-5.3
		c1.6-2.1,3.3-3.1,4.9-3.1c0.7,0,1.4,0.3,1.9,1c0.5,0.7,0.8,1.4,0.8,2.1C172.1,150,171.4,151.3,169.9,152.6"/>
	<path class="st1" d="M161.4,78.4c-0.5-1.3-1.3-2.4-2.4-3.2c0.8-1.6,0.9-3.2,0.7-4.4c0-0.4-0.1-0.8-0.2-1.1c-0.7-2.6-2-4.8-3.9-6.6
		c-1.1-1-2.3-1.9-3.6-2.6c-1.3-3.3-3.7-5.2-6.6-5.2l-0.2,0c-0.9,0-2.2,0.3-3.4,1.2c-2.2,0.4-3.6,1.9-4.5,3.4
		c-3.2,1.7-5.7,4.5-7.2,6.6c-0.5,0.1-1,0.2-1.5,0.4c-1.2-2.4-2.6-4.6-4.4-6.4c-4.2-4.4-9.9-6.8-16.9-7.2c-1.8-0.1-3.6,0-5.3,0.2
		l-2,0.3c-0.7,0.2-1.5,0.3-2.2,0.6c-1.5,0.4-13.3,4-17.3,15.4c-2.5,7.2-2.3,14.7,0.7,20.6c1.6,3.7,4.4,6.6,8,8.6
		c3,1.7,6.6,2.6,10,2.6c2.5,0,4.9-0.5,6.8-1.4l0.2-0.1c0.4-0.2,1.2-0.7,2.2-1.5c2.9,6.1,8.7,9.5,14.4,10.7c0.3,0.1,0.9,0.2,1.8,0.3
		c1.5,1.7,3.5,2,4.5,2.2c0,0,4,0.1,4.7,0c0.6,0,1.3-0.1,1.9-0.1l0.3,0c0.6,0,1.2-0.1,1.9-0.1l0.4,0l0.3-0.1c3.8-0.9,6.2-3.1,6.4-6.1
		l0-0.2l0-0.3c0-2.6-1-4.4-2.3-5.6c0.7-1.9,1.1-3.7,1.3-5.3c2.8-1.3,5.1-2.6,6.9-3.9c0.2,0,0.4,0,0.6,0h0c3.4,0,6.8-1.6,8.6-4
		C161.9,83.6,162.4,80.9,161.4,78.4 M104.7,86c-0.4,0.2-1,0.4-1.7,0.4c-2,0-3.6-1.6-3.6-3.6c0-1.5,0.9-2.8,2.2-3.3
		c0.4-0.2,0.9-0.3,1.4-0.3c2,0,3.6,1.6,3.6,3.6C106.6,84.2,105.8,85.4,104.7,86 M144.4,72.2l-7.2,7.9l4.2,3.4
		c-0.8,0.4-1.6,0.8-2.5,1.3l-0.1,0c-1.3,0.6-2.1,1-2.1,1l-5.1,1.9l2.1,4.9c0.1,0.4-0.1,1.8-1.3,4.4l-0.3,0.7l-0.4,2.7L131,100
		c-0.1-0.1-0.3-0.1-0.4-0.2l-1.6-1l-1.9,0.3c-0.1,0-0.2,0-0.5,0c-0.7,0-1.4-0.1-1.6-0.2l-0.1,0c-1-0.2-3.6-0.9-5.5-2.7
		c-2.2-2.1-3-5.1-2.6-9.4c0-0.1,0-0.1,0-0.2c0.2-0.9,0.5-3.1,0-5.5c-0.1-1-0.4-2-0.7-3l0.5-2.5l-1.1,1c-2.3-4.7-7-7.8-12.5-7.8
		c-7.1,0-13,5.3-13.9,12.2c-0.2-2.5,0.1-5.2,1.1-8c1.9-5.5,7.7-8,9.6-8.6l0.9-0.3c1.8-0.6,3.8-0.8,5.9-0.7
		c7.5,0.4,12.1,4.2,13.9,11.5l1.7,7l6.1-3.9c1.6-1.1,3.3-1.6,4.6-1.6l2.9,0l1.5-2.5c0.9-1.5,3.3-4.5,5.2-5.2l2.6,3.2L144.4,72.2z
		 M145.7,71.8l-0.4,0.1l1.1-2.6c0.8,0.3,1.4,0.7,2,1.3l0.1,0.1C147.4,71.2,146.2,71.7,145.7,71.8"/>
	<path class="st0" d="M200.6,138.4c-1.8,0-3.9,0.7-6.1,2.1l0.5-2h-9.4l-8.7,32.3h9.4l5.1-19c1.4-3.3,3.3-5,5.7-5c1,0,2.2,0.3,3.3,1
		l2.1-8.9C202.1,138.6,201.5,138.4,200.6,138.4"/>
	<path class="st0" d="M93.8,174.4c-0.7,0.9-1.6,1.3-2.9,1.3c-0.9-0.1-1.5-0.3-1.9-0.7l0,0c0,0,0,0,0,0c-0.1-0.1-0.1-0.1-0.2-0.2
		c0,0,0-0.1-0.1-0.1c-1-1.3-0.9-3-0.8-3.8c0,0,0,0,0-0.1l0.1-0.3c0,0,0,0,0,0l5.6-21.5c0.1-0.6,0.2-1.3,0.2-2c0-3.9-1.8-6.7-5.5-8.4
		c-0.6-0.2-1.4-0.3-2.3-0.3c-2.4,0-4.9,0.7-7.4,2.2l4.8-18.2h-9.5l-12.7,48.4h9.4l5.2-19.7c0.4-0.8,0.9-1.5,1.6-2.1
		c0.3-0.3,0.9-0.9,2-1.8c1-0.7,1.9-1.1,2.7-1.1c0.5,0,0.8,0.1,1.2,0.3c0.7,0.4,1,1,1,1.8c0,0.2,0,0.5-0.1,0.7l-5.5,21.1
		c0,0,0,0.1-0.1,0.3l-0.1,0.5c0,0,0,0,0,0.1c-0.3,1.5-1,4.5-0.6,6v0c0.1,1.6,0.9,3.1,2.2,4.5c1.7,1.9,3.9,2.8,6.6,2.8
		c4-0.2,7.1-1.4,9.2-3.7L93.8,174.4z"/>
	<path class="st0" d="M61.8,150.5l2.1-8.1c-2.1-2.9-4.9-4.4-8.4-4.4c-2.8,0-5.6,1-8.3,3c-2.7,2-4.9,4.6-6.5,7.8
		c-1.5,3.1-2.2,6.2-2.2,9.3c0,5.9,2.1,9.8,6.4,11.9c1.4,0.7,2.8,1,4.4,1c2.6,0,5.1-0.8,7.7-2.4l2.5-9.8c-3.1,3.2-6.1,4.8-8.8,4.7
		c-1,0-1.8-0.7-2.4-2.1c-0.4-1-0.5-2.2-0.5-3.4c0-1.7,0.3-3.5,1-5.3c0.8-2.2,2-4,3.5-5.3c1.1-1,2.1-1.6,3-1.8l0,0
		c0,0,1.8-0.7,4.1,1.5c0.3,0.2,0.5,0.5,0.7,0.8c0,0,0,0,0.1,0.1h0C60.9,148.7,61.4,149.5,61.8,150.5"/>
	<path class="st0" d="M154.6,78.9c-2-0.4-4.1-0.8-5.8,1.4c0,0-0.7,1.1-2.5,0.1c-0.8-0.4-1.6-1-1.6-1l2.5-2.8c0,0,2.9-0.9,5-2.1
		c3-1.4,2.3-2.9,2.3-2.9c0-0.2-0.1-0.5-0.1-0.7c-0.4-1.7-1.3-3.1-2.5-4.1c-1.2-1.2-2.7-2-4.3-2.6c-0.3-1.7-1.3-3.9-2.4-3.8
		c-0.6,0-1.2,0.8-1.5,1.7c-0.3-0.4-0.7-0.6-1-0.6c-0.8,0-1.4,1.2-1.7,2.2c-4.5,1.5-8.2,7.5-8.2,7.5c-2.9,0-5.5,1.3-7.4,2.5
		c-1.6-6.3-6-14.7-18.7-15.4c-2.9-0.2-5.5,0.2-7.8,0.9v0c0,0-10.5,2.7-13.8,12.2c-2.1,6-1.9,12,0.5,16.7c3.3,7.9,13.4,9.5,17.8,7.3
		c0,0,4.6-2.6,5.2-5.9c-1.5,1.4-3.6,2.2-5.8,2.2c-4.9,0-8.8-3.9-8.8-8.8c0-4.9,3.9-8.8,8.8-8.8c4.6,0,8.3,3.5,8.8,8
		c0.5,2,0,3.9,0,3.9c0,0,0,0,0,0c0,0.1,0,0.2,0,0.4c-1.5,13.7,8.6,17,12.2,17.7c0,0,2.3,0.5,4.2,0.2c0.2,0.1,0.4,0.3,0.7,0.4
		c-0.1,0.2-0.2,0.4-0.2,0.6c0,0,0,0.1,0,0.1c0,0.1,0,0.1-0.1,0.2c-0.1,0.6,0.8,0.9,1.7,1h0c0.7,0.1,1.4,0.1,1.4,0.1v0
		c1.4-0.1,2.7-0.1,4.1-0.2l0,0l0.1,0c0.6,0,1.2-0.1,1.8-0.1c0,0,2.3-0.5,2.4-1.5v0c0-1.1-0.4-2.3-1.3-1.8c-0.7,0.3-1.4,0.6-2,0.8
		l0.6-4.7c1.2-2.7,2.3-6.1,1.3-8.5c0,0,1-0.4,2.6-1.2c2.5-1.2,6.3-3.2,8.6-5.1c1.6,0.9,5,0.2,6.3-1.5
		C157.3,81.1,156.7,79.3,154.6,78.9"/>
</g>
</svg>
